HIERARCHY
ROOT Hips
{
 OFFSET 0.000000 0.000000 0.000000
 CHANNELS 6 Xposition Yposition Zposition Yrotation Xrotation Zrotation
 JOINT Chest
 {
  OFFSET 0.000000 9.585900 0.002600
  CHANNELS 3 Yrotation Xrotation Zrotation
  JOINT Chest2
  {
   OFFSET 0.000000 9.601200 -0.005300
   CHANNELS 3 Yrotation Xrotation Zrotation
   JOINT Chest3
   {
    OFFSET 0.000000 9.561800 0.000000
    CHANNELS 3 Yrotation Xrotation Zrotation
    JOINT Chest4
    {
     OFFSET 0.000000 9.552100 0.000000
     CHANNELS 3 Yrotation Xrotation Zrotation
     JOINT Neck
     {
      OFFSET 0.000000 14.453000 0.000000
      CHANNELS 3 Yrotation Xrotation Zrotation
      JOINT Head
      {
       OFFSET 0.000000 8.936500 -0.011300
       CHANNELS 3 Yrotation Xrotation Zrotation
       End Site
       {
        OFFSET 0.000000 17.073600 -0.006000
       }
      }
     }
     JOINT RightCollar
     {
      OFFSET -2.921100 9.558500 0.000000
      CHANNELS 3 Yrotation Xrotation Zrotation
      JOINT RightShoulder
      {
       OFFSET -13.519700 0.000000 0.000000
       CHANNELS 3 Yrotation Xrotation Zrotation
       JOINT RightElbow
       {
        OFFSET 0.000000 -29.696600 0.000000
        CHANNELS 3 Yrotation Xrotation Zrotation
        JOINT RightWrist
        {
         OFFSET 0.000000 -24.004700 0.000000
         CHANNELS 3 Yrotation Xrotation Zrotation
         End Site
         {
          OFFSET 0.000000 -17.728500 0.000000
         }
        }
       }
      }
     }
     JOINT LeftCollar
     {
      OFFSET 2.921100 9.558500 0.000000
      CHANNELS 3 Yrotation Xrotation Zrotation
      JOINT LeftShoulder
      {
       OFFSET 13.519700 0.000000 0.000000
       CHANNELS 3 Yrotation Xrotation Zrotation
       JOINT LeftElbow
       {
        OFFSET 0.000000 -29.696600 0.000000
        CHANNELS 3 Yrotation Xrotation Zrotation
        JOINT LeftWrist
        {
         OFFSET 0.000000 -24.004700 0.000000
         CHANNELS 3 Yrotation Xrotation Zrotation
         End Site
         {
          OFFSET 0.000000 -17.728500 0.000000
         }
        }
       }
      }
     }
    }
   }
  }
 }
 JOINT RightHip
 {
  OFFSET -7.771700 -0.012900 -0.001300
  CHANNELS 3 Yrotation Xrotation Zrotation
  JOINT RightKnee
  {
   OFFSET 0.000000 -40.869800 0.001200
   CHANNELS 3 Yrotation Xrotation Zrotation
   JOINT RightAnkle
   {
    OFFSET 0.000000 -39.717900 0.002100
    CHANNELS 3 Yrotation Xrotation Zrotation
    JOINT RightToe
    {
     OFFSET 0.000000 -4.965400 11.033500
     CHANNELS 3 Yrotation Xrotation Zrotation
     End Site
     {
      OFFSET 0.000000 -1.423100 5.872300
     }
    }
   }
  }
 }
 JOINT LeftHip
 {
  OFFSET 7.771700 -0.012900 -0.001300
  CHANNELS 3 Yrotation Xrotation Zrotation
  JOINT LeftKnee
  {
   OFFSET 0.000000 -40.869800 0.001200
   CHANNELS 3 Yrotation Xrotation Zrotation
   JOINT LeftAnkle
   {
    OFFSET 0.000000 -39.717900 0.002100
    CHANNELS 3 Yrotation Xrotation Zrotation
    JOINT LeftToe
    {
     OFFSET 0.000000 -4.965400 11.033500
     CHANNELS 3 Yrotation Xrotation Zrotation
     End Site
     {
      OFFSET 0.000000 -1.423100 5.872300
     }
    }
   }
  }
 }
}
MOTION
Frames: 13
Frame Time: 0.008333
-68.441138 48.663475 21.264591 177.214013 -29.452700 -1.515821 -0.791962 12.887830 3.037694 -0.590305 7.383864 2.102132 -0.694003 9.239012 2.618750 -0.596395 7.408781 2.102267 0.161940 17.370191 -1.416066 0.760465 -3.490172 -2.660411 2.486225 3.516368 -7.875059 -14.670136 -17.154438 -7.673582 -81.378770 -53.845873 90.039821 -8.330100 -16.057539 -23.186781 -1.668764 -0.125476 -0.233339 21.387481 -17.501093 -3.158848 70.268550 -51.795424 -84.404323 11.788383 -4.072306 34.987520 30.433619 -50.022371 -31.988936 -132.550738 76.481604 -118.271431 3.676224 -17.899030 1.636256 0.034586 -0.707389 -0.067209 -11.176227 -54.688142 16.462408 92.817920 82.543989 88.085114 -6.487435 -9.408325 -2.054707 0.343081 0.598295 0.130915
-68.439746 48.665743 21.275111 177.195260 -29.461225 -1.524355 -0.774024 12.885753 3.056517 -0.588204 7.391135 2.100990 -0.691527 9.231186 2.616745 -0.590519 7.401536 2.104110 0.140880 17.409656 -1.479359 0.751409 -3.417709 -2.763941 2.478565 3.526868 -7.874573 -14.687480 -17.062481 -7.612550 -81.392807 -53.821262 90.102700 -8.290800 -16.088256 -23.209896 -1.759905 -0.092795 -0.311774 21.396476 -17.486932 -3.196791 70.460247 -51.909923 -84.622259 11.769235 -4.102283 34.842961 30.422421 -50.023952 -31.961899 -132.485931 76.487805 -118.196476 3.674796 -17.890934 1.643190 0.042423 -0.704652 -0.073602 -11.181361 -54.677341 16.480109 92.720736 82.535478 88.004965 -6.495952 -9.402322 -2.070408 0.346031 0.602271 0.135397
-68.439880 48.667133 21.283968 177.180833 -29.471941 -1.523795 -0.762495 12.886162 3.060736 -0.585750 7.389391 2.099981 -0.690851 9.239622 2.618343 -0.585869 7.389403 2.099981 0.108712 17.444448 -1.543745 0.727371 -3.343140 -2.870933 2.473931 3.514301 -7.872384 -14.692995 -16.961949 -7.550381 -81.420811 -53.842987 90.160304 -8.294719 -16.083420 -23.232808 -1.844202 -0.068306 -0.366278 21.392497 -17.450073 -3.236676 70.642293 -52.035473 -84.824213 11.747146 -4.107573 34.727535 30.419462 -50.024807 -31.947008 -132.461684 76.490333 -118.162262 3.650077 -17.879652 1.640216 0.039184 -0.726622 -0.044360 -11.175636 -54.669025 16.459272 92.641591 82.512172 87.954050 -6.480444 -9.397762 -2.096287 0.346740 0.605849 0.137115
-68.439758 48.667360 21.292169 177.162636 -29.477941 -1.521440 -0.748374 12.878364 3.065569 -0.585617 7.387722 2.097306 -0.690886 9.237586 2.615207 -0.585753 7.387733 2.097335 0.069066 17.478248 -1.612296 0.692346 -3.262771 -2.985575 2.476940 3.504631 -7.866171 -14.692250 -16.900711 -7.521672 -81.392335 -53.826390 90.148365 -8.286713 -16.070196 -23.247228 -1.925753 -0.046525 -0.414318 21.387248 -17.398553 -3.264332 70.803940 -52.170952 -85.006294 11.720316 -4.091914 34.654651 30.428846 -50.034726 -31.937276 -132.455122 76.493570 -118.151237 3.626974 -17.857451 1.635686 0.054404 -0.740899 -0.036310 -11.170259 -54.666862 16.441927 92.571473 82.491422 87.917430 -6.473445 -9.391016 -2.126409 0.357039 0.606344 0.139653
-68.442918 48.666063 21.300577 177.143630 -29.471211 -1.498099 -0.758186 12.835257 3.035714 -0.573425 7.405914 2.099985 -0.713064 9.199142 2.599897 -0.565512 7.419591 2.103929 0.021426 17.516232 -1.690584 0.649358 -3.171692 -3.113803 2.471026 3.452452 -7.842351 -14.664676 -16.770505 -7.467939 -81.379827 -53.860459 90.161801 -8.277975 -16.053707 -23.253316 -2.003277 -0.028681 -0.462331 21.420308 -17.371290 -3.243833 70.875838 -52.257416 -85.126062 11.696609 -4.064406 34.625528 30.472624 -50.035971 -31.964802 -132.452562 76.522536 -118.150648 3.600414 -17.853708 1.647269 0.046568 -0.732294 -0.036247 -11.184087 -54.681291 16.410122 92.572032 82.450470 87.926733 -6.432556 -9.367942 -2.143181 0.318795 0.589994 0.129174
-68.444185 48.666186 21.304911 177.141525 -29.482948 -1.492168 -0.772253 12.823627 3.020710 -0.574701 7.404100 2.097550 -0.716300 9.197981 2.596285 -0.596596 7.372749 2.086767 -0.001682 17.602595 -1.770807 0.602373 -3.065045 -3.261782 2.510031 3.479343 -7.799489 -14.653637 -16.683409 -7.409776 -81.342682 -53.885416 90.155290 -8.270297 -16.035170 -23.249896 -2.050170 0.025323 -0.506516 21.455708 -17.331010 -3.210814 70.925789 -52.345604 -85.225531 11.681218 -4.032224 34.631982 30.476422 -50.024193 -31.962293 -132.463479 76.536308 -118.167104 3.606094 -17.859015 1.652169 0.030168 -0.734268 -0.029624 -11.209795 -54.670786 16.403381 92.548262 82.436043 87.909377 -6.425342 -9.357185 -2.164579 0.321024 0.583851 0.130105
-68.442706 48.666518 21.307931 177.139101 -29.495540 -1.501105 -0.784530 12.809525 3.019736 -0.578538 7.401738 2.093545 -0.731405 9.182750 2.589763 -0.613193 7.353252 2.078335 -0.037937 17.681849 -1.870097 0.552245 -2.939146 -3.433451 2.549045 3.491602 -7.750870 -14.643225 -16.613347 -7.379147 -81.278391 -53.885607 90.131487 -8.262249 -16.013257 -23.240384 -2.103866 0.058701 -0.564637 21.462119 -17.239841 -3.194794 71.027527 -52.472893 -85.358019 11.671778 -3.995206 34.658029 30.472289 -50.020132 -31.942211 -132.473017 76.537329 -118.176454 3.623702 -17.854569 1.650744 0.027398 -0.748363 -0.021211 -11.239563 -54.656203 16.418699 92.516535 82.436805 87.894867 -6.438975 -9.357443 -2.182972 0.345808 0.584906 0.130442
-68.439862 48.667677 21.308644 177.136060 -29.516207 -1.516323 -0.795169 12.799645 3.025898 -0.614434 7.355422 2.077041 -0.727495 9.197296 2.589297 -0.614471 7.355431 2.077056 -0.088664 17.760148 -1.986178 0.495238 -2.792721 -3.629099 2.584050 3.496731 -7.695708 -14.635707 -16.551142 -7.357456 -81.204171 -53.884242 90.107515 -8.251183 -15.988428 -23.227643 -2.170786 0.078525 -0.639163 21.465859 -17.080555 -3.201132 71.183284 -52.630238 -85.558258 11.664016 -3.957833 34.687419 30.454721 -50.012835 -31.898975 -132.464395 76.533198 -118.170215 3.635523 -17.848027 1.648448 0.038531 -0.770629 -0.007974 -11.278067 -54.631580 16.444538 92.507185 82.443137 87.901769 -6.439869 -9.358264 -2.209129 0.368276 0.584559 0.133867
-68.441132 48.668434 21.308737 177.136326 -29.532234 -1.507903 -0.812563 12.781132 3.008762 -0.626100 7.344405 2.074279 -0.742173 9.183710 2.585468 -0.626083 7.344474 2.074294 -0.144977 17.848406 -2.114730 0.431478 -2.627736 -3.845538 2.623843 3.540130 -7.667376 -14.652023 -16.520776 -7.299345 -81.126598 -53.889237 90.087119 -8.235363 -15.964485 -23.219230 -2.244547 0.098857 -0.727859 21.517198 -16.963386 -3.165929 71.250074 -52.700037 -85.699390 11.656894 -3.928715 34.703477 30.460646 -49.998275 -31.885734 -132.491186 76.545413 -118.218133 3.636428 -17.853344 1.651178 0.010486 -0.773628 0.004269 -11.310850 -54.611240 16.436915 92.504186 82.443325 87.899740 -6.421592 -9.359077 -2.228723 0.381293 0.584276 0.128825
-68.441924 48.669355 21.307564 177.139500 -29.551477 -1.503478 -0.823202 12.782309 2.999109 -0.645586 7.312876 2.070363 -0.759196 9.168856 2.582829 -0.639643 7.332467 2.072425 -0.204225 17.945398 -2.252826 0.364960 -2.446322 -4.078328 2.650830 3.540710 -7.585657 -14.631687 -16.467029 -7.303098 -81.049450 -53.916533 90.070925 -8.209119 -15.951180 -23.222483 -2.319346 0.123068 -0.828415 21.596456 -16.907636 -3.084501 71.229787 -52.678546 -85.761623 11.651396 -3.909738 34.693247 30.472553 -49.988516 -31.854272 -132.461216 76.520647 -118.202412 3.584934 -17.846316 1.656361 0.049335 -0.787435 0.030802 -11.404256 -54.578492 16.454009 92.531761 82.423126 87.899977 -6.355854 -9.361871 -2.238730 0.340466 0.586561 0.105681
-68.438920 48.669686 21.306646 177.148787 -29.566194 -1.525651 -0.832691 12.779252 3.014527 -0.653935 7.305657 2.068557 -0.768234 9.161105 2.581848 -0.675131 7.281818 2.072785 -0.263382 18.050969 -2.396925 0.300072 -2.248802 -4.322053 2.677105 3.546663 -7.497114 -14.584621 -16.416713 -7.364836 -81.013789 -53.927274 90.067863 -8.180497 -15.948035 -23.230655 -2.389496 0.158309 -0.936084 21.676619 -16.859884 -3.000203 71.193627 -52.636426 -85.809969 11.649082 -3.903449 34.655215 30.450077 -49.989215 -31.796848 -132.408297 76.495803 -118.151924 3.545865 -17.841364 1.655897 0.084011 -0.793068 0.049689 -11.481994 -54.554233 16.490024 92.536292 82.424332 87.905361 -6.318300 -9.370864 -2.255777 0.326167 0.594667 0.099836
-68.438047 48.669277 21.305337 177.155119 -29.579490 -1.535077 -0.866737 12.719366 3.000520 -0.640786 7.353814 2.077862 -0.777162 9.153208 2.581196 -0.711154 7.226324 2.072721 -0.320788 18.165065 -2.543307 0.238548 -2.035439 -4.570313 2.700971 3.575888 -7.421716 -14.558417 -16.394936 -7.310533 -80.931386 -54.054742 90.015337 -8.188341 -15.939348 -23.231489 -2.451591 0.208940 -1.043679 21.742439 -16.784525 -2.948590 71.176244 -52.625217 -85.874193 11.648904 -3.912465 34.597377 30.436351 -49.982161 -31.762253 -132.386054 76.494005 -118.146226 3.552856 -17.845573 1.654403 0.081959 -0.795413 0.060335 -11.539463 -54.534383 16.504888 92.537748 82.422567 87.911288 -6.288082 -9.376380 -2.285159 0.321954 0.599811 0.106393
-68.441467 48.669625 21.300575 177.175527 -29.611717 -1.526934 -0.911218 12.694580 2.964632 -0.652514 7.354354 2.078744 -0.828509 9.073466 2.574180 -0.691289 7.270585 2.069769 -0.376754 18.286628 -2.688345 0.178678 -1.808162 -4.816356 2.718487 3.612843 -7.343824 -14.513747 -16.388591 -7.251899 -80.842384 -54.197959 89.937092 -8.159748 -15.945546 -23.238989 -2.502135 0.271271 -1.145648 21.790627 -16.721099 -2.908097 71.130506 -52.620406 -85.890421 11.648247 -3.927592 34.533813 30.420932 -49.945392 -31.751194 -132.425846 76.505502 -118.221234 3.585535 -17.851693 1.664289 0.031910 -0.805268 0.052605 -11.565047 -54.501366 16.467381 92.538713 82.414453 87.921613 -6.285187 -9.372645 -2.308240 0.333126 0.595302 0.108526
